<?xml version="1.0" encoding="iso-8859-1"?>
<!-- Generator: Adobe Illustrator 19.0.0, SVG Export Plug-In . SVG Version: 6.00 Build 0)  -->
<svg version="1.1" id="Layer_1" xmlns="http://www.w3.org/2000/svg" xmlns:xlink="http://www.w3.org/1999/xlink" x="0px" y="0px"
	 viewBox="0 0 512.001 512.001" style="enable-background:new 0 0 512.001 512.001;" xml:space="preserve">
<path style="fill:#FB5858;" d="M422.043,88.938c17.188-26.907,9.31-62.651-17.597-79.839c-26.906-17.188-62.651-9.31-79.839,17.597
	c-10.008,15.666-11.503,34.324-5.706,50.576l-94.62,115.424l89.318,57.057l64.953-134.376
	C395.735,113.804,412.036,104.604,422.043,88.938z"/>
<path style="fill:#FF835D;" d="M404.446,9.099c-26.906-17.188-62.651-9.31-79.839,17.597c-10.008,15.666-11.503,34.324-5.706,50.576
	l-94.62,115.424l44.659,28.528L404.446,9.099z"/>
<path style="fill:#2C6991;" d="M347.807,410.196c-9.977,0-17.928,7.804-17.928,17.783l0.137-0.283H182.534v0.283
	c0-9.977-8.089-17.923-18.065-17.923c-9.977,0-18.065,8.231-18.065,18.208v48.443c0,19.615,15.41,35.295,35.025,35.295h149.144
	c19.615,0,35.025-15.681,35.025-35.295v-48.443C365.598,418.285,357.784,410.196,347.807,410.196z"/>
<path style="fill:#528FB3;" d="M256.001,427.694h-73.466v0.283c0-9.977-8.089-17.923-18.065-17.923
	c-9.977,0-18.065,8.231-18.065,18.208v48.443c0,19.615,15.41,35.295,35.025,35.295h74.572V427.694z"/>
<path style="fill:#F6D76F;" d="M444.699,169.96H67.302c-9.977,0-18.452,8.487-18.452,18.464v90.82
	c0,106.586,87.101,193.012,193.687,193.012h26.927c106.586,0,193.687-86.425,193.687-193.012v-90.82
	C463.152,178.447,454.676,169.96,444.699,169.96z"/>
<path style="fill:#FAEAB6;" d="M256.001,169.96H67.302c-9.977,0-18.452,8.487-18.452,18.464v90.82
	c0,106.586,87.101,193.012,193.687,193.012h13.464V169.96z"/>
<g>
</g>
<g>
</g>
<g>
</g>
<g>
</g>
<g>
</g>
<g>
</g>
<g>
</g>
<g>
</g>
<g>
</g>
<g>
</g>
<g>
</g>
<g>
</g>
<g>
</g>
<g>
</g>
<g>
</g>
</svg>
